<mxfile host="app.diagrams.net" modified="2024-05-13T08:09:19.871Z" agent="Mozilla/5.0 (Windows NT 10.0; Win64; x64) AppleWebKit/537.36 (KHTML, like Gecko) Chrome/122.0.0.0 Safari/537.36" etag="sN_SizxNFL9_Jt7f1Zqv" version="24.3.1" type="device">
  <diagram name="Trang-1" id="HcwnnXX4IhuXR0QMQcQt">
    <mxGraphModel dx="626" dy="260" grid="1" gridSize="10" guides="1" tooltips="1" connect="1" arrows="1" fold="1" page="1" pageScale="1" pageWidth="827" pageHeight="1169" math="0" shadow="0">
      <root>
        <mxCell id="0" />
        <mxCell id="1" parent="0" />
        <mxCell id="5IIIuxnwcmmMt2KY1zF--2" value="1" style="ellipse;whiteSpace=wrap;html=1;aspect=fixed;" vertex="1" parent="1">
          <mxGeometry x="310" y="290" width="30" height="30" as="geometry" />
        </mxCell>
        <mxCell id="5IIIuxnwcmmMt2KY1zF--3" value="2" style="ellipse;whiteSpace=wrap;html=1;aspect=fixed;" vertex="1" parent="1">
          <mxGeometry x="310" y="350" width="30" height="30" as="geometry" />
        </mxCell>
        <mxCell id="5IIIuxnwcmmMt2KY1zF--4" value="3" style="ellipse;whiteSpace=wrap;html=1;aspect=fixed;" vertex="1" parent="1">
          <mxGeometry x="310" y="420" width="30" height="30" as="geometry" />
        </mxCell>
        <mxCell id="5IIIuxnwcmmMt2KY1zF--5" value="0" style="ellipse;whiteSpace=wrap;html=1;aspect=fixed;" vertex="1" parent="1">
          <mxGeometry x="230" y="350" width="30" height="30" as="geometry" />
        </mxCell>
        <mxCell id="5IIIuxnwcmmMt2KY1zF--6" value="5" style="ellipse;whiteSpace=wrap;html=1;aspect=fixed;" vertex="1" parent="1">
          <mxGeometry x="390" y="350" width="30" height="30" as="geometry" />
        </mxCell>
        <mxCell id="5IIIuxnwcmmMt2KY1zF--7" value="4" style="ellipse;whiteSpace=wrap;html=1;aspect=fixed;" vertex="1" parent="1">
          <mxGeometry x="420" y="440" width="30" height="30" as="geometry" />
        </mxCell>
        <mxCell id="5IIIuxnwcmmMt2KY1zF--8" value="6" style="ellipse;whiteSpace=wrap;html=1;aspect=fixed;" vertex="1" parent="1">
          <mxGeometry x="450" y="290" width="30" height="30" as="geometry" />
        </mxCell>
        <mxCell id="5IIIuxnwcmmMt2KY1zF--9" value="7" style="ellipse;whiteSpace=wrap;html=1;aspect=fixed;" vertex="1" parent="1">
          <mxGeometry x="500" y="370" width="30" height="30" as="geometry" />
        </mxCell>
        <mxCell id="5IIIuxnwcmmMt2KY1zF--10" value="8" style="ellipse;whiteSpace=wrap;html=1;aspect=fixed;" vertex="1" parent="1">
          <mxGeometry x="550" y="420" width="30" height="30" as="geometry" />
        </mxCell>
        <mxCell id="5IIIuxnwcmmMt2KY1zF--11" value="9" style="ellipse;whiteSpace=wrap;html=1;aspect=fixed;" vertex="1" parent="1">
          <mxGeometry x="560" y="270" width="30" height="30" as="geometry" />
        </mxCell>
        <mxCell id="5IIIuxnwcmmMt2KY1zF--13" value="" style="endArrow=none;html=1;rounded=0;entryX=0;entryY=1;entryDx=0;entryDy=0;exitX=1;exitY=0;exitDx=0;exitDy=0;" edge="1" parent="1" source="5IIIuxnwcmmMt2KY1zF--5" target="5IIIuxnwcmmMt2KY1zF--2">
          <mxGeometry width="50" height="50" relative="1" as="geometry">
            <mxPoint x="420" y="360" as="sourcePoint" />
            <mxPoint x="470" y="310" as="targetPoint" />
          </mxGeometry>
        </mxCell>
        <mxCell id="5IIIuxnwcmmMt2KY1zF--16" value="" style="endArrow=none;html=1;rounded=0;exitX=1;exitY=0.5;exitDx=0;exitDy=0;entryX=0;entryY=0.5;entryDx=0;entryDy=0;" edge="1" parent="1" source="5IIIuxnwcmmMt2KY1zF--5" target="5IIIuxnwcmmMt2KY1zF--3">
          <mxGeometry width="50" height="50" relative="1" as="geometry">
            <mxPoint x="420" y="360" as="sourcePoint" />
            <mxPoint x="470" y="310" as="targetPoint" />
          </mxGeometry>
        </mxCell>
        <mxCell id="5IIIuxnwcmmMt2KY1zF--17" value="" style="endArrow=none;html=1;rounded=0;exitX=1;exitY=0.5;exitDx=0;exitDy=0;entryX=0;entryY=0.5;entryDx=0;entryDy=0;" edge="1" parent="1" source="5IIIuxnwcmmMt2KY1zF--3" target="5IIIuxnwcmmMt2KY1zF--6">
          <mxGeometry width="50" height="50" relative="1" as="geometry">
            <mxPoint x="420" y="360" as="sourcePoint" />
            <mxPoint x="470" y="310" as="targetPoint" />
          </mxGeometry>
        </mxCell>
        <mxCell id="5IIIuxnwcmmMt2KY1zF--18" value="" style="endArrow=none;html=1;rounded=0;entryX=0.5;entryY=1;entryDx=0;entryDy=0;exitX=0.5;exitY=0;exitDx=0;exitDy=0;" edge="1" parent="1" source="5IIIuxnwcmmMt2KY1zF--3" target="5IIIuxnwcmmMt2KY1zF--2">
          <mxGeometry width="50" height="50" relative="1" as="geometry">
            <mxPoint x="420" y="360" as="sourcePoint" />
            <mxPoint x="470" y="310" as="targetPoint" />
          </mxGeometry>
        </mxCell>
        <mxCell id="5IIIuxnwcmmMt2KY1zF--21" value="" style="endArrow=none;html=1;rounded=0;entryX=0.5;entryY=1;entryDx=0;entryDy=0;exitX=0.5;exitY=0;exitDx=0;exitDy=0;" edge="1" parent="1" source="5IIIuxnwcmmMt2KY1zF--4" target="5IIIuxnwcmmMt2KY1zF--3">
          <mxGeometry width="50" height="50" relative="1" as="geometry">
            <mxPoint x="420" y="410" as="sourcePoint" />
            <mxPoint x="470" y="360" as="targetPoint" />
          </mxGeometry>
        </mxCell>
        <mxCell id="5IIIuxnwcmmMt2KY1zF--22" value="" style="endArrow=none;html=1;rounded=0;exitX=1;exitY=0.5;exitDx=0;exitDy=0;entryX=0;entryY=0.5;entryDx=0;entryDy=0;" edge="1" parent="1" source="5IIIuxnwcmmMt2KY1zF--2" target="5IIIuxnwcmmMt2KY1zF--8">
          <mxGeometry width="50" height="50" relative="1" as="geometry">
            <mxPoint x="420" y="410" as="sourcePoint" />
            <mxPoint x="470" y="360" as="targetPoint" />
          </mxGeometry>
        </mxCell>
        <mxCell id="5IIIuxnwcmmMt2KY1zF--23" value="" style="endArrow=none;html=1;rounded=0;entryX=0.192;entryY=0.903;entryDx=0;entryDy=0;entryPerimeter=0;exitX=0.92;exitY=0.207;exitDx=0;exitDy=0;exitPerimeter=0;" edge="1" parent="1" source="5IIIuxnwcmmMt2KY1zF--6" target="5IIIuxnwcmmMt2KY1zF--8">
          <mxGeometry width="50" height="50" relative="1" as="geometry">
            <mxPoint x="420" y="410" as="sourcePoint" />
            <mxPoint x="470" y="360" as="targetPoint" />
          </mxGeometry>
        </mxCell>
        <mxCell id="5IIIuxnwcmmMt2KY1zF--24" value="" style="endArrow=none;html=1;rounded=0;entryX=1;entryY=1;entryDx=0;entryDy=0;exitX=0;exitY=0;exitDx=0;exitDy=0;" edge="1" parent="1" source="5IIIuxnwcmmMt2KY1zF--6" target="5IIIuxnwcmmMt2KY1zF--2">
          <mxGeometry width="50" height="50" relative="1" as="geometry">
            <mxPoint x="380" y="370" as="sourcePoint" />
            <mxPoint x="430" y="320" as="targetPoint" />
          </mxGeometry>
        </mxCell>
        <mxCell id="5IIIuxnwcmmMt2KY1zF--25" value="" style="endArrow=none;html=1;rounded=0;exitX=0.915;exitY=0.196;exitDx=0;exitDy=0;exitPerimeter=0;entryX=0.169;entryY=0.892;entryDx=0;entryDy=0;entryPerimeter=0;" edge="1" parent="1" source="5IIIuxnwcmmMt2KY1zF--4" target="5IIIuxnwcmmMt2KY1zF--6">
          <mxGeometry width="50" height="50" relative="1" as="geometry">
            <mxPoint x="380" y="410" as="sourcePoint" />
            <mxPoint x="430" y="360" as="targetPoint" />
          </mxGeometry>
        </mxCell>
        <mxCell id="5IIIuxnwcmmMt2KY1zF--26" value="" style="endArrow=none;html=1;rounded=0;entryX=0.023;entryY=0.647;entryDx=0;entryDy=0;entryPerimeter=0;exitX=1;exitY=0.5;exitDx=0;exitDy=0;" edge="1" parent="1" source="5IIIuxnwcmmMt2KY1zF--4" target="5IIIuxnwcmmMt2KY1zF--7">
          <mxGeometry width="50" height="50" relative="1" as="geometry">
            <mxPoint x="360" y="430" as="sourcePoint" />
            <mxPoint x="410" y="380" as="targetPoint" />
          </mxGeometry>
        </mxCell>
        <mxCell id="5IIIuxnwcmmMt2KY1zF--27" value="" style="endArrow=none;html=1;rounded=0;entryX=0.056;entryY=0.276;entryDx=0;entryDy=0;entryPerimeter=0;exitX=0.699;exitY=0.958;exitDx=0;exitDy=0;exitPerimeter=0;" edge="1" parent="1" source="5IIIuxnwcmmMt2KY1zF--5" target="5IIIuxnwcmmMt2KY1zF--4">
          <mxGeometry width="50" height="50" relative="1" as="geometry">
            <mxPoint x="230" y="370" as="sourcePoint" />
            <mxPoint x="280" y="320" as="targetPoint" />
          </mxGeometry>
        </mxCell>
        <mxCell id="5IIIuxnwcmmMt2KY1zF--28" value="" style="endArrow=none;html=1;rounded=0;entryX=0.716;entryY=0.952;entryDx=0;entryDy=0;entryPerimeter=0;exitX=0.333;exitY=0;exitDx=0;exitDy=0;exitPerimeter=0;" edge="1" parent="1" source="5IIIuxnwcmmMt2KY1zF--9" target="5IIIuxnwcmmMt2KY1zF--8">
          <mxGeometry width="50" height="50" relative="1" as="geometry">
            <mxPoint x="390" y="370" as="sourcePoint" />
            <mxPoint x="440" y="320" as="targetPoint" />
          </mxGeometry>
        </mxCell>
        <mxCell id="5IIIuxnwcmmMt2KY1zF--29" value="" style="endArrow=none;html=1;rounded=0;entryX=0;entryY=0.5;entryDx=0;entryDy=0;exitX=0.934;exitY=0.715;exitDx=0;exitDy=0;exitPerimeter=0;" edge="1" parent="1" source="5IIIuxnwcmmMt2KY1zF--6" target="5IIIuxnwcmmMt2KY1zF--9">
          <mxGeometry width="50" height="50" relative="1" as="geometry">
            <mxPoint x="440" y="370" as="sourcePoint" />
            <mxPoint x="470" y="320" as="targetPoint" />
          </mxGeometry>
        </mxCell>
        <mxCell id="5IIIuxnwcmmMt2KY1zF--30" value="" style="endArrow=none;html=1;rounded=0;entryX=0.067;entryY=0.735;entryDx=0;entryDy=0;entryPerimeter=0;exitX=1.008;exitY=0.577;exitDx=0;exitDy=0;exitPerimeter=0;" edge="1" parent="1" source="5IIIuxnwcmmMt2KY1zF--7" target="5IIIuxnwcmmMt2KY1zF--10">
          <mxGeometry width="50" height="50" relative="1" as="geometry">
            <mxPoint x="340" y="430" as="sourcePoint" />
            <mxPoint x="390" y="380" as="targetPoint" />
          </mxGeometry>
        </mxCell>
        <mxCell id="5IIIuxnwcmmMt2KY1zF--31" value="" style="endArrow=none;html=1;rounded=0;entryX=1;entryY=1;entryDx=0;entryDy=0;exitX=0;exitY=0;exitDx=0;exitDy=0;" edge="1" parent="1" source="5IIIuxnwcmmMt2KY1zF--10" target="5IIIuxnwcmmMt2KY1zF--9">
          <mxGeometry width="50" height="50" relative="1" as="geometry">
            <mxPoint x="560" y="410" as="sourcePoint" />
            <mxPoint x="490" y="340" as="targetPoint" />
          </mxGeometry>
        </mxCell>
        <mxCell id="5IIIuxnwcmmMt2KY1zF--32" value="" style="endArrow=none;html=1;rounded=0;entryX=0.5;entryY=1;entryDx=0;entryDy=0;exitX=0.5;exitY=0;exitDx=0;exitDy=0;" edge="1" parent="1" source="5IIIuxnwcmmMt2KY1zF--10" target="5IIIuxnwcmmMt2KY1zF--11">
          <mxGeometry width="50" height="50" relative="1" as="geometry">
            <mxPoint x="440" y="390" as="sourcePoint" />
            <mxPoint x="490" y="340" as="targetPoint" />
          </mxGeometry>
        </mxCell>
        <mxCell id="5IIIuxnwcmmMt2KY1zF--33" value="" style="endArrow=none;html=1;rounded=0;entryX=0.025;entryY=0.619;entryDx=0;entryDy=0;entryPerimeter=0;exitX=0.993;exitY=0.429;exitDx=0;exitDy=0;exitPerimeter=0;" edge="1" parent="1" source="5IIIuxnwcmmMt2KY1zF--8" target="5IIIuxnwcmmMt2KY1zF--11">
          <mxGeometry width="50" height="50" relative="1" as="geometry">
            <mxPoint x="440" y="390" as="sourcePoint" />
            <mxPoint x="490" y="340" as="targetPoint" />
          </mxGeometry>
        </mxCell>
      </root>
    </mxGraphModel>
  </diagram>
</mxfile>
